<svg width="82" height="82" viewBox="0 0 82 82" fill="none" xmlns="http://www.w3.org/2000/svg">
<path d="M21.2 24.5C28.6 18 53.4 18 60.8 24.5C60.8 24.3 61 22.6 61 22.4C61.1 20.4 61 18.5 60.6 17C57.8 7.5 50 2 41 2C32.1 2 24.3 7.5 21.4 17C21 18.4 20.9 20.3 21 22.2C21 22.5 21.2 24.3 21.2 24.5Z" fill="#D95500"/>
<path d="M60.8 24.5C59.3 23.2 57 22.1 54.3 21.3C43.9 18.3 27.1 19.3 21.2 24.5C19.9 25.7 19.1 27 19.1 28.6H21.7H60.2H62.8C62.9 27 62.1 25.7 60.8 24.5Z" fill="#D95500"/>
<path d="M60.2 28.6H21.7C22.1 31.4 22.4 32.3 22.7 33.8C23.4 38.3 24.1 40.8 25 42.5C26.4 45 28.3 45.7 31.7 48.1C37.8 51.6 44 51.6 50.1 48.1C53.6 45.7 55.5 45 56.8 42.5C57.7 40.8 58.4 38.3 59.1 33.8C59.5 32.3 59.8 31.4 60.2 28.6Z" fill="white"/>
<path d="M50.2 48C44.1 51.5 37.9 51.5 31.8 48C28.3 45.6 26.4 44.9 25.1 42.4C13.8 48.2 6.10001 60 6.10001 73.6V80.4H18.9V70.2L27.4 63.4H41.1H54.8L63.3 70.2V80.4H76.1V73.6C76.1 60 68.4 48.2 57.1 42.5C55.6 45 53.7 45.7 50.2 48Z" fill="#2B88C9"/>
<path d="M18.8 70.2V80.5H63.2V70.2L54.7 63.4H27.4L18.8 70.2Z" fill="#FBC326"/>
<path d="M17.9 57.7C18.2 57.9 18.6 58.1 19 58.1C19.5 58.1 20 57.9 20.3 57.4C20.5 57.2 20.7 56.9 20.9 56.7C21.5 56 21.4 54.9 20.7 54.3C20 53.7 18.9 53.8 18.3 54.5C18.1 54.8 17.8 55.1 17.6 55.3C17 56 17.1 57.1 17.9 57.7Z" fill="#0F3840"/>
<path d="M41 10.5C41.3 10.5 41.6 10.5 41.9 10.5H42C42.9 10.5 43.6 9.79999 43.7 8.89999C43.8 7.99999 43 7.10001 42.1 7.10001C41.7 7.10001 41.4 7.10001 41 7.10001C40.1 7.10001 39.3 7.89999 39.3 8.79999C39.3 9.69999 40.1 10.5 41 10.5Z" fill="#0F3840"/>
<path d="M80.3 78.7H77.7V73.6C77.7 66.7 75.8 60 72.2 54.2C69 49 64.5 44.7 59.2 41.7C59.9 39.9 60.4 37.5 61 34C61.1 33.4 61.2 33 61.3 32.4C61.4 31.8 61.6 31.2 61.7 30.2H62.9C63.8 30.2 64.6 29.4 64.6 28.5C64.6 26.7 63.9 25.1 62.6 23.7V23.6C62.7 22.7 62.7 22.4 62.7 22.3C62.8 19.8 62.7 17.9 62.2 16.3C60.7 11.3 57.9 7.19999 54.1 4.29999C50.4 1.49999 45.8 0 41 0C36.2 0 31.6 1.49999 27.9 4.29999C24.1 7.19999 21.3 11.3 19.8 16.3C19.3 17.8 19.2 19.7 19.3 22.1C19.3 22.3 19.3 22.7 19.4 23.5V23.6C18.1 24.9 17.4 26.5 17.4 28.4C17.4 29.3 18.2 30.1 19.1 30.1H20.3C20.5 31 20.6 31.7 20.7 32.3C20.8 32.8 20.9 33.3 21 33.9C21.6 37.4 22.1 39.8 22.8 41.6C17.5 44.6 13 48.9 9.80002 54.1C6.20002 59.9 4.30002 66.6 4.30002 73.5V78.6H1.70001C0.800012 78.6 0 79.4 0 80.3C0 81.2 0.800012 82 1.70001 82H6H18.8H63.2H76H80.3C81.2 82 82 81.2 82 80.3C82 79.5 81.2 78.7 80.3 78.7ZM21.4 26.9C22.5 25.2 25 24.1 26.6 23.5C30.3 22.1 35.6 21.4 41 21.4C46.5 21.4 51.7 22.2 55.4 23.5C57 24.1 59.5 25.2 60.6 26.9H21.4ZM23.1 17.4C25.6 8.89999 32.5 3.60001 41.1 3.60001C49.6 3.60001 56.5 8.89999 59.1 17.4C59.4 18.4 59.5 19.8 59.5 21.4C58.5 20.9 57.4 20.4 56.1 20C56 18.9 55.7 18 55.6 17.9C54.2 13.5 51.3 10.1 47.5 8.39999C46.6 7.99999 45.6 8.39998 45.2 9.19998C44.8 10.1 45.2 11.1 46 11.5C48.9 12.8 51.2 15.5 52.3 19C52.3 19 52.3 19 52.3 19.1C48.8 18.3 44.9 18 41 18C34.1 18 27.2 19.1 22.7 21.6C22.6 19.8 22.8 18.4 23.1 17.4ZM58.2 30.3C58.1 30.9 58 31.3 57.9 31.8C57.8 32.4 57.7 32.9 57.6 33.5C56.2 42.2 55.3 42.8 51.5 45.2C50.9 45.6 50.1 46.1 49.3 46.6C43.8 49.8 38.2 49.8 32.7 46.6C31.9 46.1 31.2 45.6 30.5 45.2C26.7 42.8 25.8 42.2 24.4 33.5C24.3 32.9 24.2 32.4 24.1 31.8C24 31.4 23.9 30.9 23.8 30.3H58.2ZM7.70001 73.6C7.70001 61.6 14.1 50.6 24.5 44.7C25.3 45.6 26.2 46.4 27.3 47.2C25.6 48.1 24 49.1 22.5 50.3C21.8 50.9 21.6 52 22.2 52.7C22.5 53.1 23 53.4 23.5 53.4C23.9 53.4 24.2 53.3 24.6 53C25.9 51.9 27.4 51 28.9 50.2L30.5 49.4C30.6 49.4 30.6 49.5 30.7 49.5C30.7 49.5 30.8 49.5 30.8 49.6C34.1 51.5 37.5 52.5 40.9 52.5C44.3 52.5 47.7 51.5 51 49.6C51 49.6 51.1 49.6 51.1 49.5C51.9 49 52.6 48.5 53.2 48.1C55 46.9 56.4 46 57.4 44.7C67.8 50.6 74.2 61.6 74.2 73.6V78.7H64.8V70.2V70.1C64.8 69.6 64.6 69.1 64.2 68.8C64.2 68.8 64.1 68.8 64.1 68.7L55.6 61.9C55.3 61.7 54.9 61.5 54.5 61.5H27.2C26.8 61.5 26.4 61.6 26.1 61.9L17.6 68.7C17.6 68.7 17.6 68.7 17.5 68.8C17.5 68.8 17.5 68.8 17.4 68.9C17.4 68.9 17.4 69 17.3 69C17.3 69 17.3 69.1 17.2 69.1C17.2 69.1 17.2 69.1 17.2 69.2C17.2 69.2 17.2 69.2 17.2 69.3C17.2 69.3 17.2 69.3 17.2 69.4C17.2 69.4 17.2 69.4 17.2 69.5C17.2 69.5 17.2 69.5 17.2 69.6V69.7V69.8V69.9C17.2 69.9 17.2 69.9 17.2 70V70.1V78.6H7.80002V73.6H7.70001ZM42.7 65.1H54L58.3 68.5H42.7V65.1ZM39.3 68.5H23.7L28 65.1H39.3V68.5ZM20.5 78.7V71.9H39.3V75.3C39.3 76.2 40.1 77 41 77C41.9 77 42.7 76.2 42.7 75.3V71.9H61.5V78.7H20.5Z" fill="#0F3840"/>
</svg>
