<svg width="64" height="81" viewBox="0 0 64 81" fill="none" xmlns="http://www.w3.org/2000/svg">
<path d="M55.4877 65.5763H8.4335V73.3793C8.4335 76.4532 10.9557 78.9754 14.0296 78.9754H49.8916C52.9655 78.9754 55.4877 76.4532 55.4877 73.3793V65.5763V65.5763Z" fill="#2B88C9"/>
<path d="M8.43349 65.5763H55.4877V33.5763C52.4926 33.2611 50.1281 30.7389 50.1281 27.665C50.1281 30.9754 47.4483 33.5763 44.0591 33.5763C40.7487 33.5763 37.9901 30.8965 37.9901 27.665C37.9901 30.9754 35.3103 33.5763 31.9212 33.5763C28.6108 33.5763 25.8522 30.8965 25.8522 27.665C25.8522 30.9754 23.1724 33.5763 19.7832 33.5763C16.4729 33.5763 13.7143 30.8965 13.7143 27.665C13.7143 30.7389 11.3497 33.2611 8.27585 33.5763V65.5763H8.43349ZM25.2217 42.8768V52.9655H15.133V42.8768H25.2217Z" fill="#FBC326"/>
<path d="M25.2217 42.8768H15.133V52.9655H25.2217V42.8768Z" fill="white"/>
<path d="M8.43351 33.5763C11.5074 33.2611 13.8719 30.7389 13.8719 27.665V24.6699L17.4976 11.7438H8.43351L1.73401 24.6699V27.665C1.73401 30.9754 4.41381 33.5763 7.80297 33.5763C8.03942 33.5763 8.19706 33.5763 8.43351 33.5763Z" fill="white"/>
<path d="M13.8719 27.665C13.8719 30.9754 16.5517 33.5763 19.9409 33.5763C23.2512 33.5763 26.0098 30.8965 26.0098 27.665V24.6699L27.1921 11.7438H17.4975L13.8719 24.6699V27.665V27.665Z" fill="#D95500"/>
<path d="M25.9311 24.6699V27.665C25.9311 30.9754 28.6109 33.5763 32 33.5763C35.3104 33.5763 38.069 30.8965 38.069 27.665V24.6699L36.8867 11.7438H27.1921L25.9311 24.6699Z" fill="white"/>
<path d="M36.8079 11.7438L37.9902 24.6699V27.665C37.9902 30.9754 40.6699 33.5763 44.0591 33.5763C47.3695 33.5763 50.1281 30.8965 50.1281 27.665V24.6699L46.5025 11.7438H36.8079Z" fill="#D95500"/>
<path d="M46.5024 11.7438L50.1281 24.6699V27.665C50.1281 30.7389 52.4926 33.2611 55.4877 33.5763C55.7241 33.5763 55.9606 33.5763 56.197 33.5763C59.5074 33.5763 62.266 30.8965 62.266 27.665V24.6699L55.4877 11.7438H46.5024Z" fill="white"/>
<path d="M46.5025 11.7438H55.4877V7.25123C55.4877 4.17734 52.9655 1.65517 49.8916 1.65517H14.0296C10.9557 1.65517 8.4335 4.17734 8.4335 7.25123V11.7438H17.4975H27.1921H36.8867H46.5025Z" fill="#2B88C9"/>
<path d="M32 69.7537C30.5813 69.7537 29.4778 70.8571 29.4778 72.2759C29.4778 73.6946 30.5813 74.798 32 74.798C33.4187 74.798 34.5222 73.6946 34.5222 72.2759C34.5222 70.936 33.3399 69.7537 32 69.7537Z" fill="#0F3840"/>
<path d="M63.9212 24.5123C63.9212 24.5123 63.9212 24.4335 63.9212 24.5123C63.9212 24.4335 63.9212 24.3547 63.9212 24.3547C63.9212 24.3547 63.9212 24.3547 63.9212 24.2759C63.9212 24.197 63.9212 24.197 63.8424 24.1182C63.8424 24.1182 63.8424 24.1182 63.8424 24.0394C63.8424 23.9606 63.7635 23.9606 63.7635 23.8818L57.2217 11.3498V7.33005C57.2217 3.31035 53.9113 0 49.8916 0H14.0296C10.0099 0 6.69951 3.31035 6.69951 7.33005V11.4286L0.157645 23.9606C0.157645 24.0394 0.0788225 24.0394 0.0788225 24.1182C0.0788225 24.1182 0.0788225 24.1182 0.0788225 24.197C0.0788225 24.2759 0.0788177 24.2759 0 24.3547C0 24.3547 0 24.3547 0 24.4335C0 24.5123 0 24.5123 0 24.5911C0 24.5911 0 24.5911 0 24.6699C0 24.7488 0 24.8276 0 24.8276V27.8227C0 31.6847 2.91626 34.8374 6.69951 35.3892V73.6157C6.69951 77.6354 10.0099 80.9458 14.0296 80.9458H49.8916C53.9113 80.9458 57.2217 77.6354 57.2217 73.6157V35.3892C61.0049 34.9163 64 31.6847 64 27.8227V24.8276C63.9212 24.5911 63.9212 24.5911 63.9212 24.5123ZM14.0296 3.38916H49.8916C52.0985 3.38916 53.8325 5.12315 53.8325 7.33005V10.0887H46.5025H36.8079H27.1133H17.4187H10.0887V7.33005C10.0887 5.12315 11.9015 3.38916 14.0296 3.38916ZM48.4729 27.665C48.4729 30.0296 46.5025 31.9212 44.1379 31.9212C41.6946 31.9212 39.8029 30.0296 39.8029 27.665V26.4039H40.2759C41.2217 26.4039 41.931 25.6158 41.931 24.7488C41.931 23.803 41.1429 23.0936 40.2759 23.0936H39.6453L38.7783 13.5567H45.3202L48.5517 24.9852V27.665H48.4729ZM27.665 24.7488L28.6897 13.4778H35.3103L36.1773 23.0148H31.7635C30.8177 23.0148 30.1084 23.803 30.1084 24.6699C30.1084 25.6158 30.8965 26.3251 31.7635 26.3251H36.335V27.5862C36.335 29.9507 34.3645 31.8424 32 31.8424C29.5566 31.8424 27.665 29.9507 27.665 27.5862V24.7488V24.7488ZM9.45813 13.4778H15.2118L12.532 23.0148H4.49262L9.45813 13.4778ZM15.5271 26.4039H20.4926C21.4384 26.4039 22.1478 25.6158 22.1478 24.7488C22.1478 23.803 21.3596 23.0936 20.4926 23.0936H16.0788L18.7586 13.5567H25.3005L24.2759 24.5911C24.2759 24.67 24.2759 24.67 24.2759 24.7488V27.7438C24.2759 30.1084 22.3054 32 19.9409 32C17.4975 32 15.6059 30.1084 15.6059 27.7438L15.5271 26.4039ZM3.38916 27.665V26.4039H12.1379V27.665C12.1379 30.0296 10.1675 31.9212 7.80296 31.9212C5.35961 31.9212 3.38916 30.0296 3.38916 27.665ZM49.8916 77.3202H14.0296C11.8227 77.3202 10.0887 75.5862 10.0887 73.3793V34.9163C11.5862 34.4433 12.8473 33.5764 13.7931 32.3941C15.2118 34.1281 17.4187 35.3103 19.8621 35.3103C22.3054 35.3103 24.5123 34.2069 25.931 32.3941C27.3498 34.1281 29.5566 35.3103 32 35.3103C34.4433 35.3103 36.6503 34.2069 38.069 32.3941C39.4877 34.1281 41.6946 35.3103 44.1379 35.3103C46.5813 35.3103 48.7882 34.2069 50.2069 32.3941C51.1527 33.5764 52.4138 34.4433 53.9113 34.9163V63.9212H20.1773C19.2315 63.9212 18.5222 64.7094 18.5222 65.5764C18.5222 66.5222 19.3103 67.2315 20.1773 67.2315H53.9113V73.3793C53.8325 75.5862 52.0985 77.3202 49.8916 77.3202ZM56.197 31.9212C53.7537 31.9212 51.8621 30.0296 51.8621 27.665V24.6699C51.8621 24.5123 51.8621 24.3547 51.7833 24.197L48.7882 13.399H54.5419L59.5074 22.936H57.3793C56.4335 22.936 55.7241 23.7241 55.7241 24.5911C55.7241 25.537 56.5123 26.2463 57.3793 26.2463H60.6108V27.5074C60.6108 30.0296 58.6404 31.9212 56.197 31.9212Z" fill="#0F3840"/>
<path d="M15.133 54.6207H25.2217C26.1675 54.6207 26.8769 53.8325 26.8769 52.9655V42.8768C26.8769 41.931 26.0887 41.2217 25.2217 41.2217H15.133C14.1872 41.2217 13.4778 42.0099 13.4778 42.8768V52.9655C13.4778 53.9113 14.266 54.6207 15.133 54.6207ZM16.867 44.532H23.5665V51.2315H16.867V44.532Z" fill="#0F3840"/>
<path d="M32 44.532H48.7882C49.734 44.532 50.4433 43.7438 50.4433 42.8768C50.4433 41.931 49.6552 41.2217 48.7882 41.2217H32C31.0542 41.2217 30.3448 42.0099 30.3448 42.8768C30.266 43.8227 31.0542 44.532 32 44.532Z" fill="#0F3840"/>
<path d="M48.7882 47.9212H47.7635C46.8177 47.9212 46.1084 48.7094 46.1084 49.5764C46.1084 50.5222 46.8965 51.2315 47.7635 51.2315H48.7882C49.734 51.2315 50.4433 50.4433 50.4433 49.5764C50.4433 48.6305 49.734 47.9212 48.7882 47.9212Z" fill="#0F3840"/>
<path d="M32 51.3103H41.7734C42.7192 51.3103 43.4286 50.5222 43.4286 49.6552C43.4286 48.7094 42.6404 48 41.7734 48H32C31.0542 48 30.3448 48.7882 30.3448 49.6552C30.266 50.5222 31.0542 51.3103 32 51.3103Z" fill="#0F3840"/>
<path d="M32 58.0099H33.0246C33.9705 58.0099 34.6798 57.2217 34.6798 56.3547C34.6798 55.4089 33.8916 54.6995 33.0246 54.6995H32C31.0542 54.6995 30.3448 55.4877 30.3448 56.3547C30.266 57.2217 31.0542 58.0099 32 58.0099Z" fill="#0F3840"/>
<path d="M48.7882 54.6207H39.0148C38.069 54.6207 37.3596 55.4089 37.3596 56.2759C37.3596 57.2217 38.1478 57.931 39.0148 57.931H48.7882C49.734 57.931 50.4433 57.1429 50.4433 56.2759C50.4433 55.4089 49.734 54.6207 48.7882 54.6207Z" fill="#0F3840"/>
<path d="M14.8177 63.9212H13.8719C12.9261 63.9212 12.2167 64.7094 12.2167 65.5764C12.2167 66.5222 13.0049 67.2315 13.8719 67.2315H14.8965C15.8424 67.2315 16.5517 66.4433 16.5517 65.5764C16.5517 64.6305 15.7635 63.9212 14.8177 63.9212Z" fill="#0F3840"/>
</svg>
