<svg width="82" height="82" viewBox="0 0 82 82" fill="none" xmlns="http://www.w3.org/2000/svg">
<path d="M6.97462 21.4C17.7746 2.70003 41.8746 -3.79999 60.5746 7.00001C79.2746 17.8 85.7746 41.9 74.9746 60.6C64.1746 79.3 40.0746 85.8 21.3746 75C2.57463 64.2 -3.82538 40.1 6.97462 21.4Z" fill="#FBC326"/>
<path d="M48.4746 33H46.9746C48.1746 27.4 49.9746 20.7 41.4746 19.9C40.4746 19.8 39.5746 20.5 39.4746 21.5C38.4746 32.2 34.3746 34.8 32.1746 35.1V48.7C32.1746 52.5 34.3746 55.2 38.5746 55.2H49.1746H56.6746C57.6746 55.2 58.3746 54.4 58.4746 53.4L60.4746 35.9C60.6746 34.4 59.9746 33.1 58.1746 33.1H48.4746V33Z" fill="white"/>
<path d="M32.2746 33H21.3746V55.2H32.2746V33Z" fill="#2B88C9"/>
<path d="M80.4746 30.4C77.6746 19.8 70.8746 11 61.4746 5.5C55.2746 1.9 48.2746 0 41.0746 0C26.3746 0 12.7746 7.8 5.47462 20.5C-0.0253792 29.9 -1.42538 41 1.47462 51.6C4.27462 62.2 11.0746 71 20.4746 76.5C21.7746 77.3 23.1746 77.9 24.5746 78.5H23.9746C23.0746 78.5 22.2746 79.3 22.2746 80.2C22.2746 81.1 23.0746 81.9 23.9746 81.9H58.0746C58.9746 81.9 59.7746 81.1 59.7746 80.2C59.7746 79.3 58.9746 78.5 58.0746 78.5H57.2746C65.1746 75.1 71.9746 69.1 76.4746 61.5C81.8746 52 83.2746 41 80.4746 30.4ZM73.4746 59.8C66.7746 71.4 54.2746 78.6 40.8746 78.6C34.3746 78.6 27.8746 76.9 22.1746 73.6C4.17463 63.2 -1.92538 40.2 8.37462 22.2C15.0746 10.6 27.5746 3.40002 40.9746 3.40002C47.4746 3.40002 53.9746 5.10002 59.6746 8.40002C68.3746 13.4 74.5746 21.5 77.1746 31.2C79.7746 41 78.4746 51.1 73.4746 59.8Z" fill="#0F3840"/>
<path d="M32.9746 70.7C22.3746 67.9 14.0746 59.5 11.2746 49C11.0746 48.1 10.0746 47.5 9.17463 47.8C8.27463 48 7.67462 49 7.97462 49.9C11.0746 61.6 20.3746 70.9 32.0746 74C32.1746 74 32.3746 74.1 32.4746 74.1C33.2746 74.1 33.8746 73.6 34.0746 72.8C34.4746 71.9 33.8746 70.9 32.9746 70.7Z" fill="#0F3840"/>
<path d="M49.7746 8.00001C48.8746 7.80001 47.9746 8.30002 47.6746 9.20002C47.4746 10.1 47.9746 11 48.8746 11.3C59.4746 14.1 67.7746 22.5 70.5746 33C70.7746 33.8 71.4746 34.3 72.1746 34.3C72.2746 34.3 72.4746 34.3 72.5746 34.2C73.4746 34 74.0746 33 73.7746 32.1C70.7746 20.4 61.5746 11.2 49.7746 8.00001Z" fill="#0F3840"/>
<path d="M39.8746 71.7C39.4746 71.7 38.9746 71.7 38.5746 71.6C37.6746 71.5 36.7746 72.2 36.7746 73.2C36.6746 74.1 37.3746 75 38.3746 75C38.8746 75 39.2746 75.1 39.7746 75.1C39.7746 75.1 39.7746 75.1 39.8746 75.1C40.7746 75.1 41.5746 74.4 41.5746 73.5C41.5746 72.5 40.8746 71.7 39.8746 71.7Z" fill="#0F3840"/>
<path d="M41.9746 10.3C42.3746 10.3 42.8746 10.3 43.2746 10.4H43.3746C44.2746 10.4 44.9746 9.70002 45.0746 8.80002C45.1746 7.90002 44.4746 7 43.4746 7C42.9746 7 42.5746 6.90002 42.0746 6.90002C41.1746 6.90002 40.3746 7.6 40.2746 8.5C40.2746 9.5 40.9746 10.3 41.9746 10.3Z" fill="#0F3840"/>
<path d="M58.1746 31.3H49.0746C49.7746 27.8 50.2746 24.2 48.2746 21.4C46.9746 19.6 44.6746 18.5 41.5746 18.2C41.4746 18.2 41.3746 18.2 41.2746 18.2C39.4746 18.2 37.9746 19.6 37.7746 21.4C37.1746 27.5 35.5746 31 33.8746 32.5C33.6746 31.8 32.9746 31.3 32.2746 31.3H21.3746C20.4746 31.3 19.6746 32.1 19.6746 33V55.2C19.6746 56.1 20.4746 56.9 21.3746 56.9H32.2746C33.0746 56.9 33.7746 56.4 33.9746 55.6C35.2746 56.4 36.8746 56.9 38.6746 56.9H56.6746C58.4746 56.9 59.9746 55.5 60.1746 53.5L62.1746 36C62.3746 34.6 61.9746 33.4 61.1746 32.5C60.6746 32 59.7746 31.3 58.1746 31.3ZM30.5746 53.5H23.1746V41.5H26.8746C27.7746 41.5 28.5746 40.7 28.5746 39.8C28.5746 38.9 27.7746 38.1 26.8746 38.1H23.1746V34.7H30.5746V35.2V48.8V53.5V53.5ZM58.7746 35.7L56.7746 53.2C56.7746 53.4 56.6746 53.5 56.6746 53.5H38.6746C34.5746 53.5 33.9746 50.5 33.9746 48.7V36.4C35.0746 35.9 36.4746 35 37.7746 33.2C39.6746 30.6 40.7746 26.7 41.2746 21.7C41.2746 21.7 41.2746 21.6 41.3746 21.6C43.4746 21.8 44.8746 22.4 45.6746 23.4C47.0746 25.3 46.2746 28.9 45.4746 32L45.3746 32.5C45.2746 33 45.3746 33.5 45.6746 33.9C45.9746 34.3 46.4746 34.5 46.9746 34.5H58.1746C58.3746 34.5 58.5746 34.5 58.6746 34.6C58.7746 34.9 58.7746 35.2 58.7746 35.7Z" fill="#0F3840"/>
</svg>
