<svg width="82" height="74" viewBox="0 0 82 74" fill="none" xmlns="http://www.w3.org/2000/svg">
<path d="M4.16427 3.2L9.06426 1.9C10.8643 1.4 12.7643 2.5 13.2643 4.3C13.7643 6.1 12.6642 8 10.8642 8.5L5.96425 9.8C4.16425 10.3 2.26427 9.2 1.76427 7.4C1.26427 5.6 2.36427 3.7 4.16427 3.2Z" fill="#FBC326"/>
<path d="M39.3643 61.7C42.0643 61 44.8643 62.6 45.6643 65.3C46.3643 68 44.7643 70.8 42.0643 71.6C39.3643 72.3 36.5643 70.7 35.7643 68C35.0643 65.2 36.6643 62.4 39.3643 61.7Z" fill="white"/>
<path d="M72.3643 52.9C75.0643 52.2 77.8643 53.8 78.6643 56.5C79.3643 59.2 77.7643 62 75.0643 62.8C72.3643 63.5 69.5643 61.9 68.7643 59.2C67.9643 56.4 69.6643 53.6 72.3643 52.9Z" fill="white"/>
<path d="M25.9643 38.1L65.5643 27.4L72.3643 52.9L32.7643 63.5L25.9643 38.1Z" fill="#2B88C9"/>
<path d="M20.6643 18.3L47.0643 11.2L52.3643 31L25.9643 38.1L20.6643 18.3Z" fill="#2B88C9"/>
<path d="M42.4643 33.6L49.0643 31.9L52.1643 43.5L48.4643 42.7L45.5643 45.2L42.4643 33.6Z" fill="#FBC326"/>
<path d="M30.5643 15.6L37.1643 13.8L40.2643 25.4L36.5643 24.7L33.6643 27.2L30.5643 15.6Z" fill="#FBC326"/>
<path d="M40.2643 65C41.1643 64.8 42.0643 65.3 42.3643 66.2C42.5643 67.1 42.0643 68 41.1643 68.3C40.2643 68.5 39.3643 68 39.0643 67.1C38.8643 66.2 39.3643 65.3 40.2643 65Z" fill="#FFD72E"/>
<path d="M73.2643 56.2C74.1643 56 75.0643 56.5 75.3643 57.4C75.5643 58.3 75.0643 59.2 74.1643 59.5C73.2643 59.7 72.3643 59.2 72.0643 58.3C71.7643 57.4 72.3643 56.4 73.2643 56.2Z" fill="#FFD72E"/>
<path d="M81.7643 50.3C81.5643 49.4 80.5643 48.8 79.6643 49.1L73.5643 50.7L67.1643 26.9C67.0643 26.5 66.7643 26.1 66.3643 25.9C65.9643 25.7 65.4643 25.6 65.0643 25.7L53.5643 28.8L48.6643 10.6C48.5643 10.2 48.2643 9.8 47.8643 9.6C47.4643 9.4 46.9643 9.3 46.5643 9.4L21.8643 16L18.3643 2.8C18.2643 2.4 17.9643 2 17.5643 1.8C17.1643 1.6 16.6643 1.5 16.2643 1.6L14.1643 2.2C13.2643 0.800005 11.6643 0 9.96427 0C9.56427 0 9.06428 0.100005 8.66428 0.200005L3.76429 1.5C1.06429 2.2 -0.535715 5 0.164285 7.7C0.764285 9.9 2.76428 11.5 5.16428 11.5C5.56428 11.5 6.06427 11.4 6.46427 11.3L11.3643 10C13.4643 9.4 14.9643 7.6 15.1643 5.5L15.5643 5.4L19.0643 18.6L19.3643 19.6L24.3643 38.4C24.3643 38.4 24.3643 38.4 24.3643 38.5L26.2643 45.8L31.1643 64C31.2643 64.4 31.5643 64.8 31.9643 65C32.2643 65.2 32.5643 65.2 32.8643 65.2C32.9643 65.2 33.1643 65.2 33.2643 65.1L34.1643 64.9C33.8643 66 33.8643 67.2 34.1643 68.4C34.3643 69 34.5643 69.5 34.8643 70.1H28.9643C28.0643 70.1 27.2643 70.9 27.2643 71.8C27.2643 72.7 28.0643 73.5 28.9643 73.5H40.7643H48.2643C49.1643 73.5 49.9643 72.7 49.9643 71.8C49.9643 70.9 49.1643 70.1 48.2643 70.1H46.6643C47.5643 68.6 47.8643 66.7 47.3643 64.9C47.0643 63.7 46.4643 62.7 45.5643 61.8L67.1643 56C66.8643 57.1 66.8643 58.3 67.1643 59.5C67.9643 62.5 70.6643 64.6 73.7643 64.6C74.3643 64.6 74.9643 64.5 75.5643 64.4C79.1643 63.4 81.3643 59.7 80.3643 56C80.0643 54.8 79.4643 53.8 78.5643 52.9L80.6643 52.3C81.4643 52.2 81.9643 51.3 81.7643 50.3ZM10.3643 6.9L5.46427 8.2C5.36427 8.2 5.16428 8.3 5.06428 8.3C4.26428 8.3 3.66427 7.8 3.46427 7.1C3.26427 6.2 3.76428 5.3 4.66428 5L9.56428 3.7C9.66428 3.7 9.86427 3.6 9.96427 3.6C10.7643 3.6 11.4643 4.1 11.6643 4.9C11.8643 5.7 11.3643 6.6 10.3643 6.9ZM70.2643 51.7L40.5643 59.7L38.1643 50.8C37.9643 49.9 36.9643 49.3 36.0643 49.6C35.1643 49.8 34.5643 50.8 34.8643 51.7L37.2643 60.6L33.9643 61.5L29.5643 45L28.0643 39.4L41.2643 35.9L43.9643 45.9C44.1643 46.5 44.5643 46.9 45.1643 47.1C45.3643 47.1 45.4643 47.2 45.6643 47.2C46.0643 47.2 46.4643 47.1 46.7643 46.8L48.9643 44.8L51.8643 45.4C52.4643 45.5 53.0643 45.3 53.4643 44.9C53.8643 44.5 54.0643 43.9 53.8643 43.3L51.1643 33.3L57.7643 31.5L60.1643 40.4C60.3643 41.2 61.0643 41.7 61.7643 41.7C61.8643 41.7 62.0643 41.7 62.1643 41.6C63.0643 41.4 63.6643 40.4 63.3643 39.5L60.9643 30.6L64.2643 29.7L70.2643 51.7ZM49.7643 41.2L48.7643 41C48.2643 40.9 47.6643 41 47.2643 41.4L46.4643 42.1L44.4643 34.8L47.7643 33.9L49.7643 41.2ZM37.9643 23.2L36.9643 23C36.4643 22.9 35.8643 23 35.4643 23.4L34.6643 24.1L32.6643 16.8L35.9643 15.9L37.9643 23.2ZM29.3643 17.7L32.0643 27.7C32.2643 28.3 32.6643 28.7 33.2643 28.9C33.4643 28.9 33.5643 29 33.7643 29C34.1643 29 34.5643 28.9 34.8643 28.6L37.0643 26.6L39.9643 27.2C40.5643 27.3 41.1643 27.1 41.5643 26.7C41.9643 26.3 42.1643 25.7 41.9643 25.1L39.2643 15.1L45.8643 13.3L50.2643 29.8L27.1643 36L22.7643 19.5L29.3643 17.7ZM40.6643 63.2C42.1643 63.2 43.5643 64.2 43.9643 65.7C44.4643 67.5 43.3643 69.4 41.5643 69.9C41.2643 70 40.9643 70 40.6643 70C39.1643 70 37.7643 69 37.3643 67.5C36.8643 65.7 37.9643 63.8 39.7643 63.3C40.1643 63.3 40.3643 63.2 40.6643 63.2ZM73.6643 54.4C75.1643 54.4 76.5643 55.4 76.9643 56.9C77.4643 58.7 76.3643 60.6 74.5643 61.1C74.2643 61.2 73.9643 61.2 73.6643 61.2C72.1643 61.2 70.7643 60.2 70.3643 58.7C69.8643 56.9 70.9643 55 72.7643 54.5C73.0643 54.4 73.3643 54.4 73.6643 54.4Z" fill="#0F3840"/>
<path d="M62.5643 42.8C61.6643 43 61.0643 44 61.3643 44.9L61.5643 45.5C61.7643 46.3 62.4643 46.8 63.1643 46.8C63.2643 46.8 63.4643 46.8 63.5643 46.7C64.4643 46.5 65.0643 45.5 64.7643 44.6L64.5643 44C64.4643 43.1 63.4643 42.5 62.5643 42.8Z" fill="#0F3840"/>
<path d="M36.7643 45.4C36.5643 44.5 35.5643 43.9 34.6643 44.2C33.7643 44.4 33.1643 45.4 33.4643 46.3L33.6643 46.9C33.8643 47.7 34.5643 48.2 35.2643 48.2C35.3643 48.2 35.5643 48.2 35.6643 48.1C36.5643 47.9 37.1643 46.9 36.8643 46L36.7643 45.4Z" fill="#0F3840"/>
<path d="M53.9643 70.1H53.2643C52.3643 70.1 51.5643 70.9 51.5643 71.8C51.5643 72.7 52.3643 73.5 53.2643 73.5H53.9643C54.8643 73.5 55.6643 72.7 55.6643 71.8C55.6643 70.8 54.8643 70.1 53.9643 70.1Z" fill="#0F3840"/>
</svg>
