<svg width="82" height="69" viewBox="0 0 82 69" fill="none" xmlns="http://www.w3.org/2000/svg">
<path d="M23.8 59.725H49.4V52.925V29.025V22.225V11.925H42.6H25.5H5.09998H1.59998V18.725V25.625V32.125V48.825V59.725H23.8Z" fill="#D95500"/>
<path d="M5.09998 11.925H25.5L18.7 5.125L15.3 1.72501L5.09998 11.925Z" fill="#2B88C9"/>
<path d="M18.7 5.125L25.4999 11.925H42.5999V5.125H18.7Z" fill="#FBC326"/>
<path d="M49.4 22.225V29.025V52.925V59.725H57.9C57.9 55.925 61 52.925 64.7 52.925C68.5 52.925 71.5 56.025 71.5 59.725H80V44.325H64.6H57.8V28.925H70.3H71.4V25.525C71.4 23.625 69.9 22.125 68 22.125H49.4V22.225Z" fill="#2B88C9"/>
<path d="M57.9999 29.025V44.425H80.2V37.625C80.2 35.325 79.2 33.125 77.7 31.625C76.2 30.125 74 29.125 71.7 29.125H57.9999V29.025Z" fill="white"/>
<path d="M71.5999 59.725C71.5999 55.925 68.5 52.925 64.8 52.925C61 52.925 57.9999 56.025 57.9999 59.725C57.9999 63.525 61 66.525 64.8 66.525H64.8999C68.5999 66.525 71.5999 63.525 71.5999 59.725Z" fill="#2B88C9"/>
<path d="M16.9999 66.525C20.7999 66.525 23.8 63.425 23.8 59.725C23.8 56.625 21.7999 54.025 18.9999 53.225C18.3999 53.025 17.6999 52.925 16.9999 52.925C13.1999 52.925 10.2 56.025 10.2 59.725C10.2 63.525 13.1999 66.525 16.9999 66.525Z" fill="#2B88C9"/>
<path d="M73.3 27.425V25.525C73.3 22.725 71 20.425 68.2 20.425H51.1V11.925C51.1 11.025 50.3 10.225 49.4 10.225H44.3V5.12501C44.3 4.22501 43.5 3.42501 42.6 3.42501H19.4L16.5 0.525C15.8 -0.175 14.8 -0.175 14.1 0.525L4.39999 10.225H1.70001C0.800012 10.225 0 11.025 0 11.925V59.725C0 60.625 0.800012 61.425 1.70001 61.425H8.70001C9.00001 62.725 9.50001 63.825 10.2 64.825H6.80002C5.90002 64.825 5.10001 65.625 5.10001 66.525C5.10001 67.425 5.90002 68.225 6.80002 68.225H17C21.1 68.225 24.6 65.325 25.4 61.425H49.5H56.5C56.8 62.725 57.3 63.825 58 64.825H54.6C53.7 64.825 52.9 65.625 52.9 66.525C52.9 67.425 53.7 68.225 54.6 68.225H64.8C68.9 68.225 72.4 65.325 73.2 61.425H80.2C81.1 61.425 81.9 60.625 81.9 59.725V44.325V37.525C81.9 32.425 78.2 28.225 73.3 27.425ZM40.9 6.825V10.225H26.2L22.8 6.825H40.9ZM15.3 4.12501L21.4 10.225H9.20001L15.3 4.12501ZM17 64.825C14.2 64.825 11.9 62.525 11.9 59.725C11.9 56.925 14.2 54.625 17 54.625C19.8 54.625 22.1 56.925 22.1 59.725C22.1 62.525 19.8 64.825 17 64.825ZM47.7 22.225V51.225H36.1C35.2 51.225 34.4 52.025 34.4 52.925C34.4 53.825 35.2 54.625 36.1 54.625H47.7V58.025H25.3C24.5 54.125 21.1 51.225 16.9 51.225C12.8 51.225 9.3 54.125 8.5 58.025H3.20001V30.725H10C10.9 30.725 11.7 29.925 11.7 29.025C11.7 28.125 10.9 27.325 10 27.325H3.20001V23.925H23.7C24.6 23.925 25.4 23.125 25.4 22.225C25.4 21.325 24.6 20.525 23.7 20.525H3.20001V13.725H47.6V22.225H47.7ZM56.4 58.025H51.1V54.625H57.9C57.2 55.625 56.7 56.725 56.4 58.025ZM64.8 64.825C62 64.825 59.7 62.525 59.7 59.725C59.7 56.925 62 54.625 64.8 54.625C67.6 54.625 69.9 56.925 69.9 59.725C69.9 62.525 67.6 64.825 64.8 64.825ZM78.4 58.025H73.1C72.3 54.125 68.9 51.225 64.7 51.225H51.1V23.925H68.2C69.1 23.925 69.9 24.725 69.9 25.625V27.325H58C57.1 27.325 56.3 28.125 56.3 29.025V44.425C56.3 45.325 57.1 46.125 58 46.125H78.5V58.025H78.4ZM63.1 30.725V42.625H59.7V30.725H63.1ZM78.4 42.625H66.5V30.725H71.6C75.4 30.725 78.4 33.825 78.4 37.525V42.625V42.625Z" fill="#0F3840"/>
<path d="M29.4 54.625H30.5C31.4 54.625 32.2 53.825 32.2 52.925C32.2 52.025 31.4 51.225 30.5 51.225H29.4C28.5 51.225 27.7 52.025 27.7 52.925C27.7 53.825 28.5 54.625 29.4 54.625Z" fill="#0F3840"/>
<path d="M29.4 23.925H30.5C31.4 23.925 32.2 23.125 32.2 22.225C32.2 21.325 31.4 20.525 30.5 20.525H29.4C28.5 20.525 27.7 21.325 27.7 22.225C27.7 23.125 28.5 23.925 29.4 23.925Z" fill="#0F3840"/>
<path d="M17 62.325C18.4 62.325 19.6 61.225 19.6 59.725C19.6 58.325 18.5 57.125 17 57.125C15.6 57.125 14.4 58.325 14.4 59.725C14.4 61.125 15.6 62.325 17 62.325Z" fill="#FBC326"/>
<path d="M64.8001 62.325C66.2001 62.325 67.4001 61.225 67.4001 59.725C67.4001 58.325 66.3001 57.125 64.8001 57.125C63.4001 57.125 62.2001 58.325 62.2001 59.725C62.2001 61.125 63.4001 62.325 64.8001 62.325Z" fill="#FBC326"/>
</svg>
